GRF
version=1
nRows=14
nColumns=28
inDegrees=no
endheader
time	left_ground_force_vx	left_ground_force_vy	left_ground_force_vz	left_ground_force_px	left_ground_force_py	left_ground_force_pz	left_ground_torque_x	left_ground_torque_y	left_ground_torque_z	right_ground_force_vx	right_ground_force_vy	right_ground_force_vz	right_ground_force_px	right_ground_force_py	right_ground_force_pz	right_ground_torque_x	right_ground_torque_y	right_ground_torque_z
      3.05000000	      0.00000000	      0.00000000	      0.00000000	     -0.42329613	      0.00000000	     -0.26506768	      0.00000000	      0.00000000	      0.00000000	      0.00000000	      0.00000000	      0.00000000	      0.24419002	      0.00000000	     -0.18501319	      0.00000000	      0.00000000	      0.00000000	     -0.10325634	     -9.74207581	     -0.82542114	    738.87117562	      0.00000000	   -222.22586293	      0.00000000	     11.81509650	      0.00000000
      3.06000000	      0.00000000	      0.00000000	      0.00000000	     -0.42329613	      0.00000000	     -0.26506768	      0.00000000	      0.00000000	      0.00000000	      0.00000000	      0.00000000	      0.00000000	      0.24419002	      0.00000000	     -0.18501319	      0.00000000	      0.00000000	      0.00000000	     -1.33442285	     -3.41462216	      0.06186956	    774.05862081	      0.00000000	   -218.30869760	      0.00000000	    -77.76280260	     -0.00000000
      3.07000000	      0.00000000	      0.00000000	      0.00000000	     -0.42329613	      0.00000000	     -0.26506768	      0.00000000	      0.00000000	      0.00000000	      0.00000000	      0.00000000	      0.00000000	      0.24419002	      0.00000000	     -0.18501319	      0.00000000	      0.00000000	      0.00000000	     -0.52250043	     -6.45691599	     -0.29118892	    743.94903334	      0.00000000	   -204.95642178	      0.00000000	    238.37347222	      0.00000000
      3.08000000	      0.00000000	      0.00000000	      0.00000000	     -0.42329613	      0.00000000	     -0.26506768	      0.00000000	      0.00000000	      0.00000000	      0.00000000	      0.00000000	      0.00000000	      0.24419002	      0.00000000	     -0.18501319	      0.00000000	      0.00000000	      0.00000000	     -0.67997124	    -10.09546802	      1.41180232	    723.45460854	      0.00000000	   -290.04912160	      0.00000000	   -875.08021761	     -0.00000000
      3.09000000	      0.00000000	      0.00000000	      0.00000000	     -0.42329613	      0.00000000	     -0.26506768	      0.00000000	      0.00000000	      0.00000000	      0.00000000	      0.00000000	      0.00000000	      0.24419002	      0.00000000	     -0.18501319	      0.00000000	      0.00000000	      0.00000000	     -0.48748931	     -3.37426120	      0.59228544	    790.03246589	      0.00000000	   -280.24561169	      0.00000000	   -361.54994061	     -0.00000000
      3.10000000	      0.00000000	      0.00000000	      0.00000000	     -0.42329613	      0.00000000	     -0.26506768	      0.00000000	      0.00000000	      0.00000000	      0.00000000	      0.00000000	      0.00000000	      0.24419002	      0.00000000	     -0.18501319	      0.00000000	      0.00000000	      0.00000000	     -0.96096919	      1.54487888	     -0.84716175	    785.79244071	      0.00000000	   -420.88606292	      0.00000000	    -87.18878918	     -0.00000000
      3.11000000	      0.00000000	      0.00000000	      0.00000000	     -0.42329613	      0.00000000	     -0.26506768	      0.00000000	      0.00000000	      0.00000000	      0.00000000	      0.00000000	      0.00000000	      0.24419002	      0.00000000	     -0.18501319	      0.00000000	      0.00000000	      0.00000000	     -0.80681063	     -4.31657396	     -0.41167233	    675.30559859	      0.00000000	   -117.35738177	      0.00000000	    527.24980877	      0.00000000
      3.12000000	      0.00000000	      0.00000000	      0.00000000	     -0.42329613	      0.00000000	     -0.26506768	      0.00000000	      0.00000000	      0.00000000	      0.00000000	      0.00000000	      0.00000000	      0.24419002	      0.00000000	     -0.18501319	      0.00000000	      0.00000000	      0.00000000	     -0.48344187	      1.10078984	     -0.86916499	    526.24075239	     -0.00000000	     83.11002622	      0.00000000	    500.43985347	      0.00000000
      3.13000000	      0.00000000	      0.00000000	      0.00000000	     -0.42329613	      0.00000000	     -0.26506768	      0.00000000	      0.00000000	      0.00000000	      0.00000000	      0.00000000	      0.00000000	      0.24419002	      0.00000000	     -0.18501319	      0.00000000	      0.00000000	      0.00000000	     -0.95472171	      1.15794002	     -0.36712538	    761.36710165	      0.00000000	   -124.00739875	      0.00000000	    -61.73048758	     -0.00000000
      3.14000000	      0.00000000	      0.00000000	      0.00000000	     -0.42329613	      0.00000000	     -0.26506768	      0.00000000	      0.00000000	      0.00000000	      0.00000000	      0.00000000	      0.00000000	      0.24419002	      0.00000000	     -0.18501319	      0.00000000	      0.00000000	      0.00000000	      0.47621582	      3.24071269	     -1.29337562	    737.49401219	      0.00000000	   -217.08996818	      0.00000000	    157.43319491	      0.00000000
      3.15000000	      0.00000000	      0.00000000	      0.00000000	     -0.42329613	      0.00000000	     -0.26506768	      0.00000000	      0.00000000	      0.00000000	      0.00000000	      0.00000000	      0.00000000	      0.24419002	      0.00000000	     -0.18501319	      0.00000000	      0.00000000	      0.00000000	      0.12600370	     -3.90910241	     -2.00532973	    722.97691681	      0.00000000	   -233.13757673	      0.00000000	   -112.36130612	     -0.00000000
      3.16000000	      0.00000000	      0.00000000	      0.00000000	     -0.42329613	      0.00000000	     -0.26506768	      0.00000000	      0.00000000	      0.00000000	      0.00000000	      0.00000000	      0.00000000	      0.24419002	      0.00000000	     -0.18501319	      0.00000000	      0.00000000	      0.00000000	     -0.11290024	     -0.72104741	     -1.01524610	    402.95574702	     -0.00000000	      5.66861198	      0.00000000	    732.25386883	      0.00000000
      3.17000000	      0.00000000	      0.00000000	      0.00000000	     -0.42329613	      0.00000000	     -0.26506768	      0.00000000	      0.00000000	      0.00000000	      0.00000000	      0.00000000	      0.00000000	      0.24419002	      0.00000000	     -0.18501319	      0.00000000	      0.00000000	      0.00000000	     -1.86282210	      2.86714872	     -2.57947128	    605.27177264	      0.00000000	   -201.60810574	      0.00000000	    829.46049128	      0.00000000
      3.18000000	      0.00000000	      0.00000000	      0.00000000	     -0.42329613	      0.00000000	     -0.26506768	      0.00000000	      0.00000000	      0.00000000	      0.00000000	      0.00000000	      0.00000000	      0.24419002	      0.00000000	     -0.18501319	      0.00000000	      0.00000000	      0.00000000	     -0.26008365	      3.72611289	     -1.80233214	    806.42458679	      0.00000000	   -424.53614914	      0.00000000	   -138.47925452	     -0.00000000
